<svg width="32" height="32" viewBox="0 0 32 32" fill="none" xmlns="http://www.w3.org/2000/svg">
<path d="M20.4987 19.4301C20.4396 19.4043 20.3142 19.3322 20.1397 19.1388C19.8977 18.8711 19.4844 18.8494 19.216 19.0914C18.9478 19.3334 18.9265 19.7467 19.1683 20.0151C19.427 20.3018 19.6991 20.5085 19.9769 20.6295C21.3137 21.2109 21.7808 22.5539 21.6488 23.555C21.5815 24.0677 21.2482 25.2866 19.617 25.5314C19.115 25.6066 18.5742 25.5373 18.095 25.3354C17.9283 25.2654 17.7625 25.1765 17.5868 25.0823C17.1697 24.8583 16.6969 24.6049 16.0988 24.5581C16.0655 24.5556 16.0311 24.5556 15.9978 24.5581C15.3998 24.6046 14.9271 24.858 14.51 25.082C14.3344 25.1762 14.1683 25.2654 14.0012 25.3354C13.521 25.5373 12.98 25.6064 12.4794 25.5314C12.0219 25.4629 11.628 25.3076 11.3084 25.0704C11.0181 24.8549 10.6091 24.9158 10.3936 25.2054C10.178 25.4956 10.2385 25.9048 10.5286 26.1203C11.0224 26.487 11.6131 26.7243 12.2851 26.8248C12.4855 26.8549 12.6872 26.87 12.8897 26.87C13.4403 26.87 13.9902 26.7591 14.508 26.5413C14.7322 26.4471 14.9333 26.3392 15.1283 26.2345C15.4572 26.058 15.7437 25.9043 16.0482 25.8673C16.3527 25.9043 16.6392 26.058 16.9681 26.2347C17.1629 26.339 17.364 26.4473 17.5878 26.5415C18.2967 26.8394 19.0651 26.9372 19.8111 26.8253C21.5268 26.568 22.7281 25.3804 22.9455 23.7258C23.1825 21.9265 22.1764 20.16 20.4988 19.4301L20.4987 19.4301Z" fill="url(#paint0_linear_201_2)"/>
<path d="M12.8344 17.6136C12.4813 18.5086 11.9617 19.2725 11.5991 19.4303C9.38803 20.3919 8.71515 22.7681 9.34126 24.51C9.43706 24.7768 9.68886 24.9429 9.95663 24.9429C10.0303 24.9429 10.1047 24.9306 10.1781 24.9039C10.5179 24.7816 10.6945 24.4071 10.572 24.067C10.1587 22.9177 10.6336 21.2767 12.1209 20.6296C13.1336 20.1889 13.8081 18.7096 14.0512 18.0937C14.5443 16.8443 15.1326 16.296 16.0173 16.2606C16.0292 16.2603 16.0408 16.2592 16.0527 16.2583H16.06L16.1035 16.2562C16.9766 16.3044 17.5589 16.8557 18.0475 18.093C18.0854 18.1902 18.1287 18.293 18.1764 18.4C18.3228 18.7296 18.7083 18.8783 19.0396 18.7319C19.3697 18.585 19.5184 18.1988 19.3715 17.8686C19.3323 17.7799 19.2967 17.695 19.265 17.6138C19.0139 16.9775 18.2498 15.0414 16.1083 14.948C16.0992 14.948 16.0675 14.9493 16.0463 14.9502C16.0114 14.9496 15.9699 14.95 15.9227 14.9562C13.8405 15.0647 13.0842 16.9809 12.8344 17.6136L12.8344 17.6136Z" fill="url(#paint1_linear_201_2)"/>
<path d="M7.89826 19.739C8.04149 19.739 8.18633 19.7263 8.33094 19.7C8.9835 19.5826 9.56669 19.1889 9.97314 18.5922C10.534 17.7688 10.7251 16.6457 10.4982 15.5101C10.4136 15.087 10.2744 14.6826 10.0856 14.3086C9.92251 13.9865 9.5293 13.856 9.20653 14.0198C8.88448 14.1829 8.75493 14.5761 8.91778 14.8984C9.05372 15.1671 9.15385 15.4595 9.21543 15.7669C9.37144 16.5484 9.2501 17.3293 8.89132 17.8564C8.7449 18.072 8.48853 18.3429 8.09851 18.4132C7.22243 18.5701 6.2677 17.6121 6.0095 16.3196C5.85349 15.5384 5.97483 14.7572 6.33316 14.2301C6.47959 14.0146 6.73641 13.7432 7.12644 13.6729C7.46286 13.6125 7.76756 13.7288 7.96258 13.8381C8.27711 14.0146 8.67651 13.9024 8.85255 13.5869C9.02909 13.2717 8.91642 12.873 8.6012 12.697C8.05471 12.3909 7.46465 12.283 6.89465 12.3861C6.24209 12.5038 5.65866 12.8972 5.25221 13.4941C4.6918 14.3176 4.50044 15.4406 4.72738 16.5755C5.09893 18.4351 6.44351 19.7393 7.89823 19.7391L7.89826 19.739Z" fill="url(#paint2_linear_201_2)"/>
<path d="M12.4614 13.9882C12.5239 13.9882 12.5873 13.9857 12.6505 13.9805C14.2923 13.8455 15.4393 12.047 15.2619 9.88638C15.0849 7.74032 13.6705 6.13414 12.0162 6.27398C10.3745 6.40901 9.22766 8.20744 9.40534 10.3686C9.57503 12.4318 10.889 13.9882 12.4615 13.9882L12.4614 13.9882ZM12.1236 7.57705C12.1508 7.57477 12.1782 7.57386 12.2053 7.57386C13.062 7.57386 13.8484 8.65956 13.9583 9.99318C14.0721 11.3756 13.4237 12.6045 12.5431 12.6771C11.6471 12.7489 10.8215 11.6372 10.7088 10.261C10.595 8.87852 11.243 7.64936 12.1236 7.57707L12.1236 7.57705Z" fill="url(#paint3_linear_201_2)"/>
<path d="M22.0283 18.5923C22.4345 19.1894 23.0177 19.5826 23.67 19.7001C23.8089 19.7252 23.9508 19.7377 24.0925 19.7377H24.0927C25.5698 19.7377 26.907 18.408 27.2736 16.5756C27.5001 15.4406 27.3089 14.3175 26.7487 13.4942C26.3423 12.897 25.7589 12.5038 25.1063 12.3861C24.9674 12.361 24.8255 12.3485 24.6839 12.3485C23.2066 12.3485 21.8693 13.6782 21.503 15.5106C21.2761 16.6458 21.4674 17.7689 22.0283 18.5923H22.0283ZM22.7851 15.7667C23.0218 14.583 23.8553 13.6561 24.6835 13.6561C24.7473 13.6561 24.8116 13.6615 24.8741 13.6732C25.2639 13.7434 25.521 14.0148 25.6674 14.2304C26.0262 14.7575 26.1471 15.5382 25.9911 16.3194C25.7363 17.5948 24.7717 18.5704 23.9016 18.4129C23.5122 18.3427 23.2552 18.0715 23.109 17.8562C22.7505 17.3291 22.6294 16.5479 22.7851 15.7667L22.7851 15.7667Z" fill="url(#paint4_linear_201_2)"/>
<path d="M19.3502 13.9801C19.4157 13.9855 19.4805 13.9878 19.545 13.9878C21.1037 13.9878 22.425 12.4421 22.5956 10.3674C22.7731 8.20678 21.6261 6.40832 19.9843 6.27332C19.1237 6.20307 18.2686 6.62411 17.6452 7.43107C17.4245 7.71709 17.4771 8.12766 17.7629 8.34866C18.0485 8.56899 18.459 8.51699 18.6805 8.23097C18.8847 7.96685 19.3103 7.53257 19.877 7.57707C20.7577 7.6496 21.4061 8.87851 21.2923 10.2609C21.1785 11.6427 20.343 12.751 19.4576 12.6771C18.5774 12.6045 17.9289 11.3756 18.0428 9.99457C18.0542 9.85635 18.0724 9.72087 18.0971 9.59269C18.1644 9.23802 17.9317 8.89563 17.5768 8.8279C17.2233 8.76085 16.8798 8.99326 16.812 9.34817C16.7789 9.52105 16.7545 9.70238 16.739 9.88668C16.5616 12.0466 17.7088 13.8451 19.3502 13.9801L19.3502 13.9801Z" fill="url(#paint5_linear_201_2)"/>
<path d="M5.57906 21.8095C5.34756 22.7116 5.28779 23.6526 5.40731 24.5634C5.8108 27.6291 8.09732 29.914 11.233 30.3845C11.4853 30.4226 14.3584 30.4281 16.0484 30.4281C17.7382 30.4281 20.611 30.4226 20.8655 30.385C23.9999 29.9145 26.2859 27.6293 26.6896 24.5631C26.811 23.638 26.7478 22.6824 26.5069 21.7668C28.1849 20.8925 29.4449 19.1536 29.8568 17.092C30.2213 15.2678 29.8824 13.416 28.9262 12.0114C28.5877 11.514 28.179 11.0915 27.7219 10.7446V8.24574C27.7219 7.88468 27.4288 7.59184 27.068 7.59184C26.707 7.59184 26.4141 7.88492 26.4141 8.24574V10.0262C26.1418 9.9258 25.8615 9.84369 25.572 9.79146C25.4644 9.77185 25.3556 9.75611 25.2461 9.74379C25.1747 6.87587 23.5055 4.49696 21.1515 3.82367V1.65391C21.1515 1.29285 20.8584 1 20.4976 1C20.1365 1 19.8437 1.29309 19.8437 1.65391V3.63845C18.4152 3.62408 17.049 4.22352 16 5.31418C15.0439 4.31974 13.823 3.73421 12.5327 3.6478V1.65391C12.5327 1.29285 12.2396 1 11.8788 1C11.5177 1 11.2249 1.29309 11.2249 1.65391V3.73018C8.6744 4.24611 6.82922 6.7247 6.75349 9.74374C6.64356 9.75605 6.53476 9.77179 6.42711 9.79141C6.07745 9.85458 5.73922 9.95494 5.4151 10.0879V8.56821C5.4151 8.20715 5.12201 7.9143 4.76119 7.9143C4.40013 7.9143 4.10728 8.20739 4.10728 8.56821V10.8737C3.71886 11.1944 3.36988 11.575 3.07361 12.0102C2.11795 13.4145 1.77876 15.2664 2.143 17.0906C2.56404 19.1981 3.85615 20.9529 5.57911 21.8099L5.57906 21.8095ZM4.15488 12.7468C4.76365 11.8525 5.65316 11.2599 6.65991 11.0786C6.87386 11.0396 7.09487 11.02 7.31726 11.02L7.39664 11.0209C7.57409 11.0255 7.75838 10.9553 7.88679 10.8234C8.0152 10.6916 8.08203 10.5119 8.07085 10.328C7.90116 7.50365 9.586 5.14115 11.9056 4.94981C13.2742 4.83873 14.5742 5.49561 15.474 6.71493C15.7206 7.04884 16.2801 7.04884 16.5266 6.71493C17.4264 5.49557 18.7461 4.84167 20.0929 4.94981C22.4146 5.14117 24.0997 7.50342 23.9291 10.328C23.9179 10.5119 23.9847 10.6916 24.1131 10.8234C24.2413 10.9553 24.4208 11.0264 24.6033 11.0209L24.6827 11.02C24.9041 11.02 25.1254 11.0396 25.3405 11.0786C26.347 11.2602 27.2366 11.8525 27.8451 12.7473C28.6046 13.8635 28.8705 15.3541 28.5743 16.8359C28.2045 18.6852 27.0181 20.2043 25.4773 20.7994C25.1473 20.9269 24.9787 21.2934 25.096 21.6266C25.4105 22.5186 25.5125 23.475 25.3918 24.3928C25.0668 26.8655 23.2134 28.71 20.6947 29.0886C20.5104 29.1037 18.8184 29.1201 16.0484 29.1201C13.2787 29.1201 11.5873 29.1037 11.4262 29.0914C8.88284 28.7098 7.0292 26.8655 6.70421 24.3933C6.58492 23.4846 6.68391 22.5376 6.99068 21.6545C7.10768 21.3167 6.93206 20.9477 6.59609 20.8252C5.01776 20.252 3.80296 18.7229 3.42594 16.835C3.12989 15.3527 3.39583 13.8627 4.15488 12.7468V12.7468Z" fill="url(#paint6_linear_201_2)"/>
<defs>
<linearGradient id="paint0_linear_201_2" x1="16.6221" y1="18.9231" x2="16.6221" y2="26.8703" gradientUnits="userSpaceOnUse">
<stop stop-color="#357120"/>
<stop offset="1" stop-color="#185B00"/>
</linearGradient>
<linearGradient id="paint1_linear_201_2" x1="14.2732" y1="14.948" x2="14.2732" y2="24.9429" gradientUnits="userSpaceOnUse">
<stop stop-color="#357120"/>
<stop offset="1" stop-color="#185B00"/>
</linearGradient>
<linearGradient id="paint2_linear_201_2" x1="7.61281" y1="12.3481" x2="7.61281" y2="19.7391" gradientUnits="userSpaceOnUse">
<stop stop-color="#357120"/>
<stop offset="1" stop-color="#185B00"/>
</linearGradient>
<linearGradient id="paint3_linear_201_2" x1="12.3336" y1="6.2655" x2="12.3336" y2="13.9882" gradientUnits="userSpaceOnUse">
<stop stop-color="#357120"/>
<stop offset="1" stop-color="#185B00"/>
</linearGradient>
<linearGradient id="paint4_linear_201_2" x1="24.3882" y1="12.3485" x2="24.3882" y2="19.7377" gradientUnits="userSpaceOnUse">
<stop stop-color="#357120"/>
<stop offset="1" stop-color="#185B00"/>
</linearGradient>
<linearGradient id="paint5_linear_201_2" x1="19.6673" y1="6.26575" x2="19.6673" y2="13.9878" gradientUnits="userSpaceOnUse">
<stop stop-color="#357120"/>
<stop offset="1" stop-color="#185B00"/>
</linearGradient>
<linearGradient id="paint6_linear_201_2" x1="16" y1="1" x2="16" y2="30.4281" gradientUnits="userSpaceOnUse">
<stop stop-color="#357120"/>
<stop offset="1" stop-color="#185B00"/>
</linearGradient>
</defs>
</svg>
