<?xml version="1.0" encoding="utf-8"?>
<!-- Generator: Adobe Illustrator 26.0.2, SVG Export Plug-In . SVG Version: 6.00 Build 0)  -->
<svg version="1.1" id="Layer_1" xmlns="http://www.w3.org/2000/svg" xmlns:xlink="http://www.w3.org/1999/xlink" x="0px" y="0px"
	 viewBox="0 0 400 400" style="enable-background:new 0 0 400 400;" xml:space="preserve">
<style type="text/css">
	.st0{fill-rule:evenodd;clip-rule:evenodd;fill:#377123;}
</style>
<path class="st0" d="M351.1,0c27,0,48.9,21.9,48.9,48.9v302.3c0,27-21.9,48.9-48.9,48.9H268V249.3h52l9.9-64.6H268v-41.9
	c0-17.7,8.6-34.9,36.4-34.9h28.1V53c0,0-25.5-4.4-50-4.4c-51,0-84.3,30.9-84.3,86.9v49.2h-56.7v64.6h56.7V400H48.9
	C21.9,400,0,378.1,0,351.1V48.9C0,21.9,21.9,0,48.9,0H351.1z"/>
</svg>
