<?xml version="1.0" encoding="utf-8"?>
<!-- Generator: Adobe Illustrator 26.0.2, SVG Export Plug-In . SVG Version: 6.00 Build 0)  -->
<svg version="1.1" id="Layer_1" xmlns="http://www.w3.org/2000/svg" xmlns:xlink="http://www.w3.org/1999/xlink" x="0px" y="0px"
	 viewBox="0 0 400 400" style="enable-background:new 0 0 400 400;" xml:space="preserve">
<style type="text/css">
	.st0{fill-rule:evenodd;clip-rule:evenodd;fill:#377123;}
</style>
<path class="st0" d="M351.1,0c27,0,48.9,21.9,48.9,48.9v302.3c0,27-21.9,48.9-48.9,48.9H48.9C21.9,400,0,378.1,0,351.1V48.9
	C0,21.9,21.9,0,48.9,0H351.1z M200,63.3c-37.1,0-41.8,0.2-56.4,0.8c-14.6,0.7-24.5,3-33.2,6.4c-18.4,7.1-32.9,21.6-40,40
	c-3.4,8.7-5.7,18.6-6.4,33.2s-0.8,19.2-0.8,56.4s0.2,41.8,0.8,56.4c0.7,14.6,3,24.5,6.4,33.2c7.1,18.4,21.6,32.9,40,40
	c8.7,3.4,18.6,5.7,33.2,6.4s19.2,0.8,56.4,0.8s41.8-0.2,56.4-0.8s24.5-3,33.2-6.4c18.4-7.1,32.9-21.6,40-40
	c3.4-8.7,5.7-18.6,6.4-33.2s0.8-19.2,0.8-56.4s-0.2-41.8-0.8-56.4s-3-24.5-6.4-33.2c-7.1-18.4-21.6-32.9-40-40
	c-8.7-3.4-18.6-5.7-33.2-6.4S237.1,63.3,200,63.3z M200,87.9c36.5,0,40.8,0.1,55.2,0.8c13.3,0.6,20.6,2.8,25.4,4.7
	c11.9,4.6,21.4,14.1,26,26c1.9,4.8,4.1,12,4.7,25.4c0.7,14.4,0.8,18.7,0.8,55.2s-0.1,40.8-0.8,55.2c-0.6,13.3-2.8,20.6-4.7,25.4
	c-4.6,11.9-14,21.3-26,26c-4.8,1.9-12,4.1-25.4,4.7c-14.4,0.7-18.7,0.8-55.2,0.8s-40.8-0.1-55.2-0.8c-13.3-0.6-20.6-2.8-25.4-4.7
	c-11.9-4.6-21.3-14-26-26c-1.9-4.8-4.1-12-4.7-25.4c-0.7-14.4-0.8-18.7-0.8-55.2s0.1-40.8,0.8-55.2c0.6-13.3,2.8-20.6,4.7-25.4
	c4.6-11.9,14.1-21.4,26-26c4.8-1.9,12-4.1,25.4-4.7C159.2,88.1,163.5,88,200,87.9L200,87.9z M200,129.8c-38.8,0-70.2,31.4-70.2,70.2
	s31.4,70.2,70.2,70.2s70.2-31.4,70.2-70.2C270.2,161.2,238.8,129.8,200,129.8z M200,245.6c-25.2,0-45.6-20.4-45.6-45.6
	s20.4-45.6,45.6-45.6s45.6,20.4,45.6,45.6S225.2,245.6,200,245.6L200,245.6L200,245.6z M289.4,127c0,9.1-7.3,16.4-16.4,16.4
	c-9.1,0-16.4-7.3-16.4-16.4s7.3-16.4,16.4-16.4c0,0,0,0,0,0C282,110.6,289.4,118,289.4,127z"/>
</svg>
