<svg width="232" height="25" viewBox="0 0 232 25" fill="none" xmlns="http://www.w3.org/2000/svg">
<path d="M11.7113 18.5885V19.8713H1.84152V5.18054H11.525V6.4634H3.28991V11.7604H10.4698V12.9811H3.28991V18.5885H11.7113ZM13.1131 14.5123C13.1131 13.4915 13.32 12.5604 13.7338 11.719C14.1614 10.8637 14.7477 10.1809 15.4926 9.67054C16.2375 9.16016 17.0858 8.90497 18.0376 8.90497C18.9342 8.90497 19.7343 9.14637 20.4378 9.62916C21.1551 10.0982 21.7138 10.6706 22.1138 11.3465V4.76672H23.5208V18.1747C23.5208 18.3678 23.5622 18.5126 23.6449 18.6092C23.7277 18.6919 23.8519 18.7402 24.0174 18.754V19.8713C23.7415 19.9127 23.5277 19.9265 23.376 19.9127C23.0863 19.8989 22.8311 19.7817 22.6104 19.561C22.3897 19.3403 22.2793 19.0989 22.2793 18.8368V17.7815C21.8517 18.485 21.2723 19.0437 20.5413 19.4575C19.8102 19.8713 19.0515 20.0783 18.2652 20.0783C17.5203 20.0783 16.8306 19.9265 16.1961 19.623C15.5753 19.3196 15.0305 18.9057 14.5615 18.3816C14.1063 17.8574 13.7476 17.2642 13.4855 16.6021C13.2372 15.9262 13.1131 15.2296 13.1131 14.5123ZM22.1138 16.1676V12.8363C21.9345 12.3397 21.6448 11.8914 21.2448 11.4914C20.8447 11.0776 20.3895 10.7534 19.8791 10.5189C19.3825 10.2706 18.886 10.1464 18.3894 10.1464C17.81 10.1464 17.2858 10.2706 16.8168 10.5189C16.3478 10.7534 15.9409 11.0776 15.596 11.4914C15.265 11.9052 15.0098 12.3742 14.8305 12.8984C14.6511 13.4226 14.5615 13.9605 14.5615 14.5123C14.5615 15.0917 14.658 15.6434 14.8512 16.1676C15.0581 16.6918 15.3477 17.1608 15.7202 17.5746C16.0926 17.9746 16.5202 18.285 17.003 18.5057C17.4858 18.7264 18.01 18.8368 18.5756 18.8368C18.9342 18.8368 19.3067 18.7678 19.6929 18.6299C20.0791 18.4919 20.4447 18.3057 20.7895 18.0712C21.1482 17.8229 21.4448 17.5332 21.6793 17.2022C21.9138 16.8711 22.0586 16.5263 22.1138 16.1676ZM26.7708 4.76672H28.1778V17.4298C28.1778 17.9677 28.2743 18.3195 28.4675 18.485C28.6606 18.6506 28.8951 18.7333 29.171 18.7333C29.4193 18.7333 29.6676 18.7057 29.9158 18.6506C30.1641 18.5954 30.378 18.5402 30.5573 18.485L30.8056 19.623C30.5435 19.7334 30.2193 19.8231 29.8331 19.892C29.4606 19.961 29.1365 19.9955 28.8606 19.9955C28.2261 19.9955 27.7157 19.8093 27.3294 19.4368C26.957 19.0644 26.7708 18.554 26.7708 17.9057V4.76672ZM32.2428 15.4227V9.09119H33.6498V15.1744C33.6498 16.4021 33.8567 17.3194 34.2706 17.9264C34.6982 18.5333 35.3258 18.8368 36.1535 18.8368C36.7052 18.8368 37.2363 18.7195 37.7467 18.485C38.2709 18.2367 38.733 17.8919 39.133 17.4505C39.533 16.9953 39.8365 16.4711 40.0434 15.8779V9.09119H41.4504V18.1747C41.4504 18.3678 41.4918 18.5126 41.5746 18.6092C41.6573 18.6919 41.7815 18.7402 41.947 18.754V19.8713C41.7815 19.8851 41.6504 19.892 41.5539 19.892C41.4573 19.9058 41.3677 19.9127 41.2849 19.9127C41.009 19.8851 40.7676 19.7748 40.5607 19.5817C40.3676 19.3885 40.2641 19.154 40.2503 18.8782L40.2089 17.4298C39.7399 18.2574 39.0985 18.9057 38.2847 19.3747C37.4846 19.8437 36.6156 20.0783 35.6776 20.0783C34.5464 20.0783 33.6912 19.6851 33.1118 18.8988C32.5325 18.1126 32.2428 16.9539 32.2428 15.4227ZM47.8388 19.8713L43.473 9.09119H44.9421L48.6251 18.4643L52.3289 9.09119H53.7152L49.3493 19.8713H47.8388ZM55.6643 19.8713V9.09119H57.0714V19.8713H55.6643ZM55.6643 6.83584V4.76672H57.0714V6.83584H55.6643ZM63.7086 20.0783C62.8257 20.0783 62.005 19.9334 61.2463 19.6437C60.4876 19.3541 59.8324 18.9126 59.2806 18.3195L59.86 17.3263C60.4669 17.8919 61.0739 18.3057 61.6808 18.5678C62.3016 18.8161 62.9568 18.9402 63.6465 18.9402C64.4879 18.9402 65.1707 18.7747 65.6949 18.4436C66.2191 18.0988 66.4812 17.6091 66.4812 16.9746C66.4812 16.5469 66.3501 16.2228 66.0881 16.0021C65.8398 15.7676 65.4742 15.5813 64.9914 15.4434C64.5224 15.2917 63.9569 15.133 63.2947 14.9675C62.5499 14.7606 61.9222 14.5468 61.4118 14.3261C60.9152 14.0916 60.5359 13.8019 60.2738 13.457C60.0255 13.0984 59.9014 12.6363 59.9014 12.0707C59.9014 11.3672 60.0738 10.7879 60.4187 10.3327C60.7773 9.86366 61.2601 9.51191 61.867 9.27741C62.4878 9.02912 63.1775 8.90497 63.9362 8.90497C64.7638 8.90497 65.4949 9.03601 66.1294 9.2981C66.764 9.56019 67.2813 9.92574 67.6813 10.3947L66.9985 11.3465C66.6122 10.9051 66.1501 10.581 65.6122 10.374C65.088 10.1533 64.5017 10.043 63.8534 10.043C63.412 10.043 62.9913 10.1051 62.5912 10.2292C62.1912 10.3396 61.8601 10.5327 61.5981 10.8086C61.3498 11.0707 61.2256 11.4362 61.2256 11.9052C61.2256 12.2914 61.3222 12.5949 61.5153 12.8156C61.7084 13.0225 61.9981 13.2019 62.3843 13.3536C62.7706 13.4915 63.2465 13.6433 63.812 13.8088C64.6259 14.0295 65.3363 14.2571 65.9432 14.4916C66.5502 14.7123 67.0192 15.002 67.3502 15.3606C67.6813 15.7193 67.8468 16.2228 67.8468 16.8711C67.8468 17.8781 67.4675 18.6643 66.7088 19.2299C65.9501 19.7955 64.95 20.0783 63.7086 20.0783ZM70.1725 19.8713V9.09119H71.5795V19.8713H70.1725ZM70.1725 6.83584V4.76672H71.5795V6.83584H70.1725ZM79.2719 20.0783C78.4995 20.0783 77.7822 19.9334 77.1201 19.6437C76.4717 19.3403 75.9062 18.9333 75.4234 18.4229C74.9544 17.8988 74.5888 17.3056 74.3267 16.6435C74.0646 15.9676 73.9336 15.2572 73.9336 14.5123C73.9336 13.7398 74.0646 13.0225 74.3267 12.3604C74.5888 11.6845 74.9613 11.0913 75.4441 10.581C75.9269 10.0568 76.4924 9.64985 77.1407 9.36018C77.8029 9.0567 78.5202 8.90497 79.2926 8.90497C80.0651 8.90497 80.7755 9.0567 81.4238 9.36018C82.0722 9.64985 82.6377 10.0568 83.1205 10.581C83.6033 11.0913 83.9758 11.6845 84.2378 12.3604C84.4999 13.0225 84.631 13.7398 84.631 14.5123C84.631 15.2572 84.4999 15.9676 84.2378 16.6435C83.9758 17.3056 83.6033 17.8988 83.1205 18.4229C82.6515 18.9333 82.086 19.3403 81.4238 19.6437C80.7755 19.9334 80.0582 20.0783 79.2719 20.0783ZM75.3613 14.533C75.3613 15.3331 75.5337 16.0641 75.8786 16.7263C76.2372 17.3746 76.7131 17.8919 77.3063 18.2781C77.8994 18.6506 78.5546 18.8368 79.2719 18.8368C79.9892 18.8368 80.6445 18.6437 81.2376 18.2574C81.8308 17.8712 82.3067 17.347 82.6653 16.6849C83.024 16.009 83.2033 15.2779 83.2033 14.4916C83.2033 13.6915 83.024 12.9605 82.6653 12.2983C82.3067 11.6362 81.8308 11.112 81.2376 10.7258C80.6445 10.3396 79.9892 10.1464 79.2719 10.1464C78.5546 10.1464 77.8994 10.3465 77.3063 10.7465C76.7269 11.1465 76.2579 11.6776 75.8993 12.3397C75.5406 12.988 75.3613 13.7191 75.3613 14.533ZM96.0469 19.8713H94.6399V13.8502C94.6399 12.5811 94.4537 11.6569 94.0812 11.0776C93.7088 10.4844 93.1225 10.1878 92.3225 10.1878C91.7707 10.1878 91.2258 10.3258 90.6879 10.6017C90.1499 10.8637 89.674 11.2293 89.2602 11.6983C88.8601 12.1535 88.5705 12.6777 88.3911 13.2708V19.8713H86.9841V9.09119H88.267V11.5328C88.5567 11.0086 88.936 10.5534 89.405 10.1671C89.874 9.7671 90.4051 9.45674 90.9982 9.23603C91.5914 9.01532 92.2052 8.90497 92.8398 8.90497C93.4329 8.90497 93.9364 9.01532 94.3502 9.23603C94.764 9.45674 95.0951 9.774 95.3434 10.1878C95.5917 10.5879 95.771 11.0776 95.8814 11.6569C95.9917 12.2225 96.0469 12.857 96.0469 13.5605V19.8713ZM97.833 9.09119L98.1847 6.87722H97.6881V4.76672H99.0538V6.87722L98.5365 9.09119H97.833ZM104.141 20.0783C103.259 20.0783 102.438 19.9334 101.679 19.6437C100.92 19.3541 100.265 18.9126 99.7135 18.3195L100.293 17.3263C100.9 17.8919 101.507 18.3057 102.114 18.5678C102.734 18.8161 103.39 18.9402 104.079 18.9402C104.921 18.9402 105.604 18.7747 106.128 18.4436C106.652 18.0988 106.914 17.6091 106.914 16.9746C106.914 16.5469 106.783 16.2228 106.521 16.0021C106.273 15.7676 105.907 15.5813 105.424 15.4434C104.955 15.2917 104.39 15.133 103.728 14.9675C102.983 14.7606 102.355 14.5468 101.845 14.3261C101.348 14.0916 100.969 13.8019 100.707 13.457C100.458 13.0984 100.334 12.6363 100.334 12.0707C100.334 11.3672 100.507 10.7879 100.851 10.3327C101.21 9.86366 101.693 9.51191 102.3 9.27741C102.921 9.02912 103.61 8.90497 104.369 8.90497C105.197 8.90497 105.928 9.03601 106.562 9.2981C107.197 9.56019 107.714 9.92574 108.114 10.3947L107.431 11.3465C107.045 10.9051 106.583 10.581 106.045 10.374C105.521 10.1533 104.935 10.043 104.286 10.043C103.845 10.043 103.424 10.1051 103.024 10.2292C102.624 10.3396 102.293 10.5327 102.031 10.8086C101.783 11.0707 101.658 11.4362 101.658 11.9052C101.658 12.2914 101.755 12.5949 101.948 12.8156C102.141 13.0225 102.431 13.2019 102.817 13.3536C103.203 13.4915 103.679 13.6433 104.245 13.8088C105.059 14.0295 105.769 14.2571 106.376 14.4916C106.983 14.7123 107.452 15.002 107.783 15.3606C108.114 15.7193 108.28 16.2228 108.28 16.8711C108.28 17.8781 107.9 18.6643 107.142 19.2299C106.383 19.7955 105.383 20.0783 104.141 20.0783Z" fill="black"/>
<path d="M152.5 16.0848C152.5 16.8159 152.314 17.4712 151.941 18.0505C151.569 18.6161 151.065 19.0644 150.431 19.3954C149.81 19.7127 149.127 19.8713 148.382 19.8713H141.451V5.18054H148.527C149.217 5.18054 149.81 5.36676 150.307 5.7392C150.817 6.09785 151.203 6.56686 151.465 7.14621C151.741 7.71177 151.879 8.30492 151.879 8.92566C151.879 9.65675 151.693 10.3327 151.321 10.9534C150.948 11.5741 150.431 12.0362 149.769 12.3397C150.61 12.588 151.272 13.0501 151.755 13.726C152.252 14.4019 152.5 15.1882 152.5 16.0848ZM151.052 15.8365C151.052 15.34 150.941 14.8847 150.721 14.4709C150.5 14.0433 150.196 13.6984 149.81 13.4364C149.438 13.1743 149.01 13.0432 148.527 13.0432H142.899V18.6092H148.382C148.879 18.6092 149.327 18.4781 149.727 18.216C150.127 17.9539 150.445 17.616 150.679 17.2022C150.927 16.7745 151.052 16.3193 151.052 15.8365ZM142.899 6.44271V11.8638H147.948C148.431 11.8638 148.858 11.7397 149.231 11.4914C149.603 11.2293 149.9 10.8913 150.121 10.4775C150.341 10.0637 150.452 9.62227 150.452 9.15326C150.452 8.65667 150.348 8.20836 150.141 7.80833C149.934 7.39451 149.652 7.06345 149.293 6.81515C148.934 6.56685 148.527 6.44271 148.072 6.44271H142.899ZM159.597 20.0783C158.825 20.0783 158.108 19.9334 157.446 19.6437C156.783 19.3403 156.211 18.9333 155.728 18.4229C155.245 17.8988 154.866 17.2987 154.59 16.6228C154.328 15.9469 154.197 15.2227 154.197 14.4502C154.197 13.4433 154.425 12.519 154.88 11.6776C155.349 10.8362 155.99 10.1671 156.804 9.67054C157.618 9.16016 158.542 8.90497 159.577 8.90497C160.639 8.90497 161.563 9.16016 162.349 9.67054C163.149 10.1809 163.777 10.8568 164.232 11.6983C164.688 12.5259 164.915 13.4364 164.915 14.4295C164.915 14.5399 164.915 14.6502 164.915 14.7606C164.915 14.8572 164.908 14.933 164.894 14.9882H155.666C155.735 15.7607 155.949 16.4504 156.308 17.0573C156.68 17.6505 157.156 18.1264 157.735 18.485C158.328 18.8299 158.97 19.0023 159.66 19.0023C160.363 19.0023 161.025 18.823 161.646 18.4643C162.28 18.1057 162.722 17.6367 162.97 17.0573L164.191 17.3884C163.97 17.8988 163.632 18.3609 163.177 18.7747C162.722 19.1885 162.184 19.5127 161.563 19.7472C160.956 19.9679 160.301 20.0783 159.597 20.0783ZM155.625 13.9743H163.591C163.536 13.1881 163.322 12.4984 162.949 11.9052C162.591 11.3121 162.115 10.8499 161.522 10.5189C160.942 10.174 160.301 10.0016 159.597 10.0016C158.894 10.0016 158.253 10.174 157.673 10.5189C157.094 10.8499 156.618 11.3189 156.245 11.9259C155.887 12.519 155.68 13.2019 155.625 13.9743ZM176.149 19.8713H174.742V13.8502C174.742 12.5811 174.555 11.6569 174.183 11.0776C173.811 10.4844 173.224 10.1878 172.424 10.1878C171.872 10.1878 171.328 10.3258 170.79 10.6017C170.252 10.8637 169.776 11.2293 169.362 11.6983C168.962 12.1535 168.672 12.6777 168.493 13.2708V19.8713H167.086V9.09119H168.369V11.5328C168.658 11.0086 169.038 10.5534 169.507 10.1671C169.976 9.7671 170.507 9.45674 171.1 9.23603C171.693 9.01532 172.307 8.90497 172.942 8.90497C173.535 8.90497 174.038 9.01532 174.452 9.23603C174.866 9.45674 175.197 9.774 175.445 10.1878C175.693 10.5879 175.873 11.0776 175.983 11.6569C176.094 12.2225 176.149 12.857 176.149 13.5605V19.8713ZM183.474 20.0162C182.742 20.0162 182.067 19.8644 181.446 19.561C180.825 19.2575 180.287 18.8506 179.832 18.3402C179.39 17.816 179.046 17.2229 178.797 16.5607C178.549 15.8986 178.425 15.2158 178.425 14.5123C178.425 13.7536 178.542 13.0432 178.777 12.3811C179.025 11.7052 179.37 11.1051 179.811 10.581C180.266 10.0568 180.797 9.64985 181.404 9.36018C182.011 9.0567 182.687 8.90497 183.432 8.90497C184.356 8.90497 185.156 9.13947 185.832 9.60847C186.522 10.0775 187.101 10.6568 187.57 11.3465V9.09119H188.833V19.9127C188.833 20.9059 188.591 21.7404 188.108 22.4164C187.639 23.1061 186.998 23.6234 186.184 23.9682C185.384 24.3131 184.508 24.4855 183.556 24.4855C182.329 24.4855 181.335 24.2648 180.577 23.8234C179.818 23.382 179.197 22.7888 178.715 22.0439L179.584 21.3611C180.011 22.037 180.577 22.5405 181.28 22.8716C181.998 23.2026 182.756 23.3682 183.556 23.3682C184.26 23.3682 184.901 23.2371 185.481 22.975C186.074 22.7267 186.543 22.3474 186.888 21.837C187.246 21.3266 187.426 20.6852 187.426 19.9127V17.7815C187.012 18.4574 186.446 19.0023 185.729 19.4161C185.012 19.8162 184.26 20.0162 183.474 20.0162ZM183.867 18.8368C184.294 18.8368 184.701 18.7609 185.087 18.6092C185.488 18.4574 185.853 18.2574 186.184 18.0091C186.515 17.747 186.791 17.4574 187.012 17.1401C187.232 16.8228 187.37 16.4987 187.426 16.1676V12.8363C187.219 12.3121 186.922 11.85 186.536 11.45C186.15 11.0362 185.708 10.7189 185.212 10.4982C184.729 10.2637 184.225 10.1464 183.701 10.1464C183.094 10.1464 182.549 10.2775 182.067 10.5396C181.598 10.7879 181.198 11.1258 180.866 11.5534C180.549 11.9673 180.301 12.4363 180.122 12.9605C179.942 13.4846 179.853 14.0088 179.853 14.533C179.853 15.1123 179.956 15.6641 180.163 16.1883C180.37 16.6987 180.653 17.1608 181.011 17.5746C181.384 17.9746 181.811 18.285 182.294 18.5057C182.791 18.7264 183.315 18.8368 183.867 18.8368ZM191.071 16.7676C191.071 16.0917 191.264 15.5124 191.65 15.0296C192.036 14.533 192.567 14.1537 193.243 13.8916C193.933 13.6157 194.726 13.4777 195.623 13.4777C196.147 13.4777 196.692 13.5191 197.257 13.6019C197.823 13.6846 198.326 13.8088 198.768 13.9743V13.0639C198.768 12.1535 198.499 11.4293 197.961 10.8913C197.423 10.3534 196.678 10.0844 195.726 10.0844C195.147 10.0844 194.574 10.1947 194.009 10.4154C193.457 10.6223 192.878 10.9327 192.271 11.3465L191.733 10.3534C192.436 9.87056 193.126 9.51191 193.802 9.27741C194.478 9.02912 195.168 8.90497 195.871 8.90497C197.195 8.90497 198.244 9.28431 199.016 10.043C199.789 10.8017 200.175 11.85 200.175 13.1881V18.1747C200.175 18.3678 200.216 18.5126 200.299 18.6092C200.382 18.6919 200.513 18.7402 200.692 18.754V19.8713C200.54 19.8851 200.409 19.8989 200.299 19.9127C200.189 19.9265 200.106 19.9265 200.051 19.9127C199.706 19.8989 199.444 19.7886 199.264 19.5817C199.085 19.3747 198.989 19.154 198.975 18.9195L198.954 18.1333C198.471 18.754 197.844 19.2368 197.071 19.5817C196.299 19.9127 195.512 20.0783 194.712 20.0783C194.023 20.0783 193.395 19.9334 192.829 19.6437C192.278 19.3403 191.843 18.9402 191.526 18.4436C191.222 17.9333 191.071 17.3746 191.071 16.7676ZM198.292 17.5953C198.444 17.4022 198.561 17.216 198.644 17.0366C198.726 16.8573 198.768 16.6987 198.768 16.5607V14.9882C198.299 14.8089 197.809 14.6709 197.299 14.5744C196.802 14.4778 196.299 14.4295 195.788 14.4295C194.781 14.4295 193.967 14.6296 193.347 15.0296C192.726 15.4296 192.416 15.9745 192.416 16.6642C192.416 17.0642 192.519 17.4436 192.726 17.8022C192.933 18.1471 193.236 18.4367 193.636 18.6712C194.036 18.892 194.505 19.0023 195.043 19.0023C195.719 19.0023 196.347 18.8713 196.926 18.6092C197.519 18.3471 197.975 18.0091 198.292 17.5953ZM203.277 4.76672H204.684V17.4298C204.684 17.9677 204.78 18.3195 204.974 18.485C205.167 18.6506 205.401 18.7333 205.677 18.7333C205.925 18.7333 206.174 18.7057 206.422 18.6506C206.67 18.5954 206.884 18.5402 207.063 18.485L207.312 19.623C207.05 19.7334 206.725 19.8231 206.339 19.892C205.967 19.961 205.643 19.9955 205.367 19.9955C204.732 19.9955 204.222 19.8093 203.836 19.4368C203.463 19.0644 203.277 18.554 203.277 17.9057V4.76672ZM213.508 20.0783C212.735 20.0783 212.018 19.9334 211.356 19.6437C210.694 19.3403 210.121 18.9333 209.639 18.4229C209.156 17.8988 208.776 17.2987 208.501 16.6228C208.239 15.9469 208.107 15.2227 208.107 14.4502C208.107 13.4433 208.335 12.519 208.79 11.6776C209.259 10.8362 209.901 10.1671 210.715 9.67054C211.528 9.16016 212.453 8.90497 213.487 8.90497C214.549 8.90497 215.474 9.16016 216.26 9.67054C217.06 10.1809 217.688 10.8568 218.143 11.6983C218.598 12.5259 218.826 13.4364 218.826 14.4295C218.826 14.5399 218.826 14.6502 218.826 14.7606C218.826 14.8572 218.819 14.933 218.805 14.9882H209.577C209.646 15.7607 209.859 16.4504 210.218 17.0573C210.59 17.6505 211.066 18.1264 211.646 18.485C212.239 18.8299 212.88 19.0023 213.57 19.0023C214.273 19.0023 214.936 18.823 215.556 18.4643C216.191 18.1057 216.632 17.6367 216.881 17.0573L218.101 17.3884C217.881 17.8988 217.543 18.3609 217.087 18.7747C216.632 19.1885 216.094 19.5127 215.474 19.7472C214.867 19.9679 214.211 20.0783 213.508 20.0783ZM209.535 13.9743H217.501C217.446 13.1881 217.232 12.4984 216.86 11.9052C216.501 11.3121 216.025 10.8499 215.432 10.5189C214.853 10.174 214.211 10.0016 213.508 10.0016C212.804 10.0016 212.163 10.174 211.584 10.5189C211.004 10.8499 210.528 11.3189 210.156 11.9259C209.797 12.519 209.59 13.2019 209.535 13.9743ZM230.059 19.8713H228.652V13.8502C228.652 12.5811 228.466 11.6569 228.093 11.0776C227.721 10.4844 227.135 10.1878 226.335 10.1878C225.783 10.1878 225.238 10.3258 224.7 10.6017C224.162 10.8637 223.686 11.2293 223.272 11.6983C222.872 12.1535 222.583 12.6777 222.403 13.2708V19.8713H220.996V9.09119H222.279V11.5328C222.569 11.0086 222.948 10.5534 223.417 10.1671C223.886 9.7671 224.417 9.45674 225.01 9.23603C225.604 9.01532 226.217 8.90497 226.852 8.90497C227.445 8.90497 227.949 9.01532 228.362 9.23603C228.776 9.45674 229.107 9.774 229.356 10.1878C229.604 10.5879 229.783 11.0776 229.894 11.6569C230.004 12.2225 230.059 12.857 230.059 13.5605V19.8713Z" fill="black"/>
<path d="M127.294 15.5031C127.252 15.4849 127.163 15.4338 127.039 15.2969C126.868 15.1072 126.575 15.0919 126.385 15.2633C126.195 15.4346 126.18 15.7274 126.351 15.9175C126.535 16.1205 126.727 16.2669 126.924 16.3526C127.871 16.7644 128.202 17.7155 128.108 18.4245C128.06 18.7877 127.824 19.6509 126.669 19.8243C126.314 19.8776 125.931 19.8285 125.591 19.6855C125.473 19.6359 125.356 19.5729 125.231 19.5062C124.936 19.3476 124.601 19.1681 124.177 19.135C124.154 19.1332 124.129 19.1332 124.106 19.135C123.682 19.1679 123.348 19.3474 123.052 19.506C122.928 19.5728 122.81 19.6359 122.692 19.6855C122.352 19.8285 121.969 19.8774 121.614 19.8243C121.29 19.7758 121.011 19.6658 120.785 19.4978C120.579 19.3451 120.289 19.3883 120.137 19.5934C119.984 19.7989 120.027 20.0887 120.232 20.2414C120.582 20.5011 121 20.6691 121.476 20.7403C121.618 20.7617 121.761 20.7723 121.905 20.7723C122.295 20.7723 122.684 20.6938 123.051 20.5395C123.21 20.4728 123.352 20.3964 123.49 20.3223C123.723 20.1972 123.926 20.0884 124.142 20.0622C124.357 20.0884 124.56 20.1972 124.793 20.3224C124.931 20.3963 125.073 20.473 125.232 20.5397C125.734 20.7507 126.278 20.82 126.807 20.7407C128.022 20.5584 128.873 19.7173 129.026 18.5455C129.194 17.2712 128.482 16.0201 127.294 15.5031L127.294 15.5031Z" fill="black"/>
<path d="M121.865 14.2167C121.615 14.8505 121.247 15.3915 120.99 15.5033C119.424 16.1843 118.948 17.8672 119.391 19.1009C119.459 19.2899 119.637 19.4075 119.827 19.4075C119.879 19.4075 119.932 19.3988 119.984 19.3799C120.225 19.2933 120.35 19.028 120.263 18.7872C119.97 17.9732 120.307 16.8109 121.36 16.3527C122.077 16.0406 122.555 14.9928 122.727 14.5567C123.076 13.6718 123.493 13.2834 124.119 13.2584C124.128 13.2582 124.136 13.2574 124.145 13.2568H124.15L124.181 13.2553C124.799 13.2894 125.211 13.6798 125.557 14.5562C125.584 14.625 125.615 14.6978 125.649 14.7736C125.752 15.007 126.025 15.1123 126.26 15.0086C126.494 14.9046 126.599 14.6311 126.495 14.3972C126.467 14.3344 126.442 14.2743 126.42 14.2168C126.242 13.7661 125.701 12.3949 124.184 12.3287C124.178 12.3287 124.155 12.3297 124.14 12.3304C124.115 12.3299 124.086 12.3302 124.052 12.3346C122.578 12.4114 122.042 13.7685 121.865 14.2166L121.865 14.2167Z" fill="black"/>
<path d="M118.37 15.7219C118.471 15.7219 118.574 15.7129 118.676 15.6943C119.138 15.6111 119.551 15.3323 119.839 14.9097C120.236 14.3265 120.372 13.5311 120.211 12.7269C120.151 12.4272 120.052 12.1408 119.919 11.8759C119.803 11.6478 119.525 11.5554 119.296 11.6714C119.068 11.7869 118.976 12.0654 119.092 12.2936C119.188 12.4839 119.259 12.691 119.302 12.9088C119.413 13.4622 119.327 14.0153 119.073 14.3886C118.969 14.5413 118.788 14.7332 118.511 14.7829C117.891 14.8941 117.215 14.2156 117.032 13.3002C116.921 12.7469 117.007 12.1936 117.261 11.8203C117.365 11.6677 117.547 11.4755 117.823 11.4257C118.061 11.3829 118.277 11.4653 118.415 11.5427C118.638 11.6677 118.921 11.5882 119.045 11.3648C119.17 11.1416 119.091 10.8592 118.867 10.7345C118.48 10.5177 118.062 10.4413 117.659 10.5143C117.197 10.5977 116.783 10.8763 116.496 11.2991C116.099 11.8823 115.963 12.6777 116.124 13.4814C116.387 14.7985 117.339 15.7221 118.37 15.722L118.37 15.7219Z" fill="black"/>
<path d="M121.601 11.649C121.646 11.649 121.691 11.6472 121.735 11.6435C122.898 11.5479 123.71 10.2742 123.585 8.74393C123.459 7.22402 122.458 6.08647 121.286 6.18551C120.123 6.28114 119.311 7.55485 119.437 9.08543C119.557 10.5467 120.488 11.649 121.601 11.649L121.601 11.649ZM121.362 7.10839C121.381 7.10678 121.401 7.10613 121.42 7.10613C122.027 7.10613 122.584 7.87506 122.662 8.81957C122.742 9.79866 122.283 10.669 121.659 10.7204C121.025 10.7713 120.44 9.98393 120.36 9.00922C120.279 8.03013 120.738 7.1596 121.362 7.1084L121.362 7.10839Z" fill="black"/>
<path d="M128.377 14.9098C128.664 15.3327 129.077 15.6112 129.539 15.6944C129.638 15.7122 129.738 15.7211 129.839 15.7211H129.839C130.885 15.7211 131.832 14.7793 132.092 13.4815C132.252 12.6777 132.117 11.8823 131.72 11.2992C131.432 10.8762 131.019 10.5978 130.557 10.5144C130.458 10.4966 130.358 10.4877 130.258 10.4877C129.211 10.4877 128.264 11.4295 128.005 12.7273C127.844 13.5312 127.98 14.3267 128.377 14.9098H128.377ZM128.913 12.9087C129.08 12.0703 129.671 11.4138 130.257 11.4138C130.302 11.4138 130.348 11.4177 130.392 11.4259C130.668 11.4757 130.85 11.6679 130.954 11.8206C131.208 12.1939 131.294 12.7468 131.183 13.3001C131.003 14.2034 130.32 14.8943 129.703 14.7828C129.428 14.733 129.246 14.541 129.142 14.3885C128.888 14.0152 128.802 13.4619 128.913 12.9086L128.913 12.9087Z" fill="black"/>
<path d="M126.48 11.6432C126.527 11.6471 126.572 11.6487 126.618 11.6487C127.722 11.6487 128.658 10.554 128.779 9.08464C128.904 7.55439 128.092 6.28066 126.929 6.18505C126.32 6.1353 125.714 6.43349 125.273 7.00501C125.116 7.20758 125.154 7.49836 125.356 7.65488C125.558 7.81093 125.849 7.7741 126.006 7.57153C126.15 7.38447 126.452 7.0769 126.853 7.10841C127.477 7.15978 127.936 8.03014 127.856 9.00923C127.775 9.98782 127.183 10.7728 126.556 10.7204C125.933 10.669 125.474 9.79867 125.554 8.82057C125.562 8.72268 125.575 8.62673 125.593 8.53595C125.64 8.28476 125.476 8.04227 125.224 7.9943C124.974 7.94681 124.731 8.11141 124.683 8.36277C124.659 8.48521 124.642 8.61363 124.631 8.74416C124.505 10.2739 125.318 11.5476 126.48 11.6433L126.48 11.6432Z" fill="black"/>
<path d="M116.727 17.1883C116.563 17.8272 116.521 18.4937 116.605 19.1387C116.891 21.31 118.51 22.9283 120.731 23.2615C120.91 23.2885 122.945 23.2923 124.142 23.2923C125.338 23.2923 127.373 23.2885 127.553 23.2618C129.773 22.9286 131.392 21.3101 131.678 19.1386C131.764 18.4834 131.719 17.8065 131.549 17.1581C132.737 16.5389 133.63 15.3074 133.921 13.8472C134.179 12.5553 133.939 11.2437 133.262 10.249C133.023 9.89667 132.733 9.5975 132.409 9.35182V7.58201C132.409 7.32629 132.202 7.11889 131.946 7.11889C131.69 7.11889 131.483 7.32646 131.483 7.58201V8.84296C131.29 8.77188 131.092 8.71373 130.887 8.67674C130.81 8.66285 130.733 8.6517 130.656 8.64298C130.605 6.61181 129.423 4.92699 127.756 4.45014V2.91344C127.756 2.65772 127.548 2.45032 127.293 2.45032C127.037 2.45032 126.83 2.65789 126.83 2.91344V4.31896C125.818 4.30879 124.85 4.73333 124.107 5.50577C123.43 4.80148 122.566 4.38678 121.652 4.32558V2.91344C121.652 2.65772 121.444 2.45032 121.189 2.45032C120.933 2.45032 120.726 2.65789 120.726 2.91344V4.38393C118.919 4.74933 117.612 6.50475 117.559 8.64294C117.481 8.65166 117.404 8.66281 117.328 8.6767C117.08 8.72144 116.84 8.79252 116.611 8.8867V7.81039C116.611 7.55467 116.403 7.34727 116.148 7.34727C115.892 7.34727 115.685 7.55484 115.685 7.81039V9.44319C115.409 9.67032 115.162 9.93993 114.953 10.2481C114.276 11.2427 114.035 12.5543 114.293 13.8462C114.592 15.3389 115.507 16.5817 116.727 17.1886L116.727 17.1883ZM115.718 10.7698C116.149 10.1365 116.779 9.71677 117.492 9.58837C117.644 9.56075 117.801 9.54685 117.958 9.54685L118.014 9.5475C118.14 9.55073 118.27 9.50098 118.361 9.40761C118.452 9.31424 118.5 9.18695 118.492 9.05675C118.372 7.05643 119.565 5.38322 121.208 5.24771C122.177 5.16904 123.098 5.63427 123.735 6.49783C123.91 6.73432 124.306 6.73432 124.48 6.49783C125.118 5.63424 126.052 5.17112 127.006 5.24771C128.65 5.38324 129.844 7.05627 129.723 9.05675C129.715 9.18695 129.762 9.31424 129.853 9.40761C129.944 9.50098 130.071 9.55138 130.201 9.5475L130.257 9.54685C130.414 9.54685 130.57 9.56075 130.723 9.58837C131.436 9.71695 132.066 10.1365 132.497 10.7702C133.034 11.5607 133.223 12.6164 133.013 13.6659C132.751 14.9756 131.911 16.0515 130.82 16.4729C130.586 16.5632 130.466 16.8228 130.55 17.0588C130.772 17.6906 130.844 18.3679 130.759 19.0179C130.529 20.7692 129.216 22.0755 127.432 22.3437C127.302 22.3543 126.104 22.366 124.142 22.366C122.18 22.366 120.982 22.3543 120.868 22.3456C119.067 22.0754 117.754 20.7692 117.524 19.0183C117.439 18.3747 117.509 17.704 117.727 17.0785C117.81 16.8393 117.685 16.5779 117.447 16.4912C116.329 16.0852 115.469 15.0023 115.202 13.6652C114.992 12.6154 115.181 11.5601 115.718 10.7698V10.7698Z" fill="black"/>
</svg>
