<svg width="321" height="338" viewBox="0 0 321 338" fill="none" xmlns="http://www.w3.org/2000/svg">
<path d="M211.862 211.137C211.185 210.842 209.749 210.017 207.751 207.802C204.979 204.736 200.246 204.487 197.173 207.259C194.101 210.03 193.858 214.763 196.627 217.837C199.589 221.12 202.705 223.486 205.886 224.873C221.195 231.531 226.544 246.91 225.032 258.374C224.261 264.246 220.445 278.204 201.765 281.007C196.016 281.869 189.823 281.075 184.335 278.763C182.426 277.961 180.527 276.943 178.516 275.864C173.739 273.299 168.324 270.397 161.476 269.862C161.095 269.833 160.7 269.833 160.319 269.862C153.471 270.395 148.058 273.296 143.282 275.861C141.27 276.94 139.369 277.961 137.454 278.763C131.956 281.075 125.761 281.866 120.028 281.007C114.788 280.223 110.277 278.445 106.618 275.728C103.293 273.26 98.6094 273.957 96.1414 277.274C93.6731 280.597 94.3653 285.283 97.6876 287.751C103.342 291.951 110.107 294.668 117.802 295.819C120.098 296.164 122.407 296.336 124.726 296.336C131.031 296.336 137.329 295.067 143.258 292.572C145.825 291.494 148.129 290.258 150.362 289.059C154.129 287.038 157.409 285.277 160.896 284.854C164.383 285.277 167.664 287.038 171.43 289.062C173.661 290.256 175.965 291.496 178.527 292.575C186.645 295.986 195.445 297.107 203.988 295.824C223.635 292.878 237.392 279.278 239.881 260.331C242.595 239.725 231.074 219.496 211.863 211.137L211.862 211.137Z" fill="url(#paint0_linear_124_2)"/>
<path d="M124.088 190.336C120.045 200.585 114.095 209.332 109.942 211.14C84.6219 222.152 76.9163 249.363 84.0863 269.31C85.1833 272.366 88.0669 274.268 91.1333 274.268C91.9769 274.268 92.8285 274.127 93.6695 273.821C97.5613 272.421 99.583 268.132 98.1804 264.238C93.4475 251.076 98.8856 232.284 115.918 224.873C127.515 219.827 135.239 202.886 138.023 195.834C143.67 181.526 150.406 175.246 160.538 174.841C160.674 174.839 160.807 174.826 160.943 174.815H161.026L161.525 174.792C171.524 175.343 178.192 181.656 183.787 195.825C184.22 196.938 184.717 198.116 185.263 199.341C186.939 203.115 191.354 204.818 195.149 203.142C198.928 201.459 200.631 197.037 198.949 193.255C198.5 192.239 198.092 191.268 197.729 190.338C194.854 183.051 186.103 160.88 161.58 159.81C161.476 159.81 161.113 159.825 160.87 159.836C160.47 159.828 159.995 159.833 159.454 159.904C135.61 161.147 126.949 183.09 124.088 190.336L124.088 190.336Z" fill="url(#paint1_linear_124_2)"/>
<path d="M67.5655 214.675C69.2058 214.675 70.8644 214.529 72.5204 214.229C79.9933 212.884 86.6719 208.375 91.3264 201.542C97.7492 192.113 99.938 179.252 97.3391 166.247C96.37 161.402 94.7768 156.771 92.6141 152.488C90.7465 148.8 86.2436 147.305 82.5474 149.181C78.8594 151.048 77.3758 155.551 79.2407 159.242C80.7974 162.319 81.9441 165.668 82.6493 169.188C84.4359 178.137 83.0464 187.08 78.9378 193.116C77.2609 195.585 74.3251 198.688 69.8587 199.492C59.8262 201.289 48.893 190.319 45.9362 175.517C44.1496 166.571 45.5392 157.625 49.6426 151.59C51.3194 149.121 54.2604 146.013 58.7269 145.209C62.5795 144.516 66.0688 145.848 68.3021 147.1C71.904 149.121 76.4778 147.836 78.4938 144.224C80.5154 140.614 79.2251 136.048 75.6154 134.032C69.3572 130.527 62.6 129.291 56.0726 130.472C48.5997 131.82 41.9184 136.325 37.2639 143.161C30.8463 152.591 28.655 165.452 31.2538 178.448C35.5087 199.744 50.9063 214.679 67.5652 214.676L67.5655 214.675Z" fill="url(#paint2_linear_124_2)"/>
<path d="M119.821 148.819C120.537 148.819 121.263 148.791 121.986 148.731C140.787 147.184 153.923 126.589 151.891 101.846C149.864 77.2705 133.667 58.8771 114.723 60.4785C95.9222 62.0248 82.7892 82.6198 84.8239 107.368C86.7671 130.996 101.814 148.819 119.821 148.819L119.821 148.819ZM115.953 75.4008C116.264 75.3747 116.577 75.3642 116.888 75.3642C126.698 75.3642 135.705 87.7973 136.963 103.069C138.266 118.901 130.841 132.974 120.756 133.804C110.496 134.627 101.041 121.896 99.7509 106.136C98.4476 90.3047 105.868 76.2288 115.952 75.401L115.953 75.4008Z" fill="url(#paint3_linear_124_2)"/>
<path d="M229.374 201.543C234.026 208.381 240.704 212.884 248.174 214.229C249.765 214.517 251.39 214.66 253.012 214.66H253.014C269.929 214.66 285.243 199.433 289.441 178.449C292.034 165.451 289.845 152.59 283.431 143.162C278.776 136.323 272.095 131.82 264.622 130.472C263.031 130.185 261.407 130.042 259.785 130.042C242.867 130.042 227.553 145.269 223.358 166.253C220.759 179.253 222.951 192.114 229.373 201.543H229.374ZM238.04 169.186C240.751 155.63 250.295 145.015 259.779 145.015C260.511 145.015 261.247 145.078 261.963 145.211C266.427 146.016 269.37 149.124 271.047 151.592C275.156 157.628 276.54 166.569 274.754 175.515C271.836 190.121 260.79 201.292 250.826 199.49C246.367 198.685 243.424 195.579 241.75 193.114C237.644 187.078 236.257 178.132 238.041 169.186L238.04 169.186Z" fill="url(#paint4_linear_124_2)"/>
<path d="M198.708 148.726C199.458 148.788 200.2 148.814 200.939 148.814C218.789 148.814 233.92 131.113 235.874 107.355C237.906 82.6121 224.771 62.0167 205.969 60.4708C196.115 59.6664 186.322 64.488 179.183 73.7289C176.655 77.0043 177.258 81.706 180.531 84.2369C183.801 86.76 188.503 86.1645 191.039 82.8891C193.377 79.8645 198.251 74.8913 204.741 75.4009C214.826 76.2315 222.252 90.3046 220.948 106.136C219.645 121.959 210.077 134.651 199.938 133.804C189.858 132.973 182.432 118.9 183.736 103.085C183.867 101.502 184.076 99.9509 184.358 98.483C185.128 94.4215 182.464 90.5006 178.4 89.725C174.351 88.9571 170.417 91.6186 169.642 95.6828C169.263 97.6627 168.984 99.7392 168.806 101.85C166.774 126.585 179.912 147.18 198.708 148.726L198.708 148.726Z" fill="url(#paint5_linear_124_2)"/>
<path d="M41.0061 238.386C38.355 248.716 37.6706 259.492 39.0393 269.922C43.6599 305.029 69.8444 331.196 105.753 336.584C108.642 337.02 141.544 337.083 160.897 337.083C180.248 337.083 213.146 337.02 216.061 336.589C251.954 331.201 278.134 305.032 282.757 269.919C284.146 259.325 283.423 248.381 280.665 237.897C299.88 227.885 314.309 207.972 319.026 184.363C323.2 163.472 319.319 142.266 308.369 126.181C304.493 120.485 299.812 115.647 294.578 111.675V83.0584C294.578 78.9237 291.222 75.5701 287.09 75.5701C282.955 75.5701 279.601 78.9264 279.601 83.0584V103.447C276.483 102.298 273.273 101.358 269.958 100.759C268.725 100.535 267.479 100.355 266.226 100.213C265.408 67.3711 246.294 40.1286 219.336 32.4184V7.57105C219.336 3.43634 215.98 0.0827637 211.848 0.0827637C207.713 0.0827637 204.36 3.43909 204.36 7.57105V30.2974C188.001 30.1328 172.356 36.9973 160.343 49.4872C149.394 38.0993 135.412 31.394 120.636 30.4044V7.57105C120.636 3.43634 117.28 0.0827637 113.148 0.0827637C109.013 0.0827637 105.66 3.43909 105.66 7.57105V31.3478C76.4528 37.256 55.3225 65.6399 54.4553 100.213C53.1963 100.354 51.9504 100.534 50.7176 100.759C46.7135 101.482 42.8402 102.632 39.1285 104.154L39.1285 86.7511C39.1285 82.6164 35.7721 79.2628 31.6402 79.2628C27.5055 79.2628 24.1519 82.6191 24.1519 86.7511L24.1519 113.152C19.7038 116.825 15.7074 121.184 12.3146 126.168C1.37073 142.25 -2.5135 163.456 1.65758 184.346C6.4792 208.481 21.276 228.577 41.0067 238.39L41.0061 238.386ZM24.6969 134.603C31.6683 124.362 41.8546 117.576 53.3836 115.5C55.8337 115.053 58.3646 114.828 60.9114 114.828L61.8203 114.839C63.8525 114.891 65.9629 114.087 67.4334 112.577C68.9039 111.067 69.6692 109.009 69.5412 106.904C67.5979 74.5602 86.8922 47.5057 113.456 45.3145C129.128 44.0425 144.016 51.5649 154.32 65.528C157.143 69.3519 163.55 69.3519 166.373 65.528C176.677 51.5644 191.79 44.0761 207.214 45.3145C233.801 47.5059 253.098 74.5576 251.144 106.904C251.016 109.009 251.781 111.067 253.252 112.577C254.719 114.087 256.775 114.902 258.865 114.839L259.774 114.828C262.31 114.828 264.843 115.053 267.307 115.5C278.833 117.579 289.02 124.362 295.989 134.609C304.687 147.391 307.732 164.461 304.339 181.43C300.105 202.608 286.518 220.003 268.874 226.818C265.095 228.278 263.164 232.475 264.507 236.291C268.109 246.506 269.276 257.458 267.895 267.969C264.173 296.285 242.948 317.408 214.104 321.744C211.994 321.916 192.618 322.104 160.897 322.104C129.18 322.104 109.81 321.916 107.966 321.775C78.8398 317.405 57.6126 296.285 53.8909 267.974C52.5248 257.569 53.6584 246.724 57.1714 236.61C58.5114 232.742 56.5002 228.516 52.6528 227.113C34.5783 220.549 20.6669 203.039 16.3494 181.42C12.9591 164.445 16.0046 147.381 24.6969 134.603V134.603Z" fill="url(#paint6_linear_124_2)"/>
<defs>
<linearGradient id="paint0_linear_124_2" x1="167.469" y1="205.331" x2="167.469" y2="296.34" gradientUnits="userSpaceOnUse">
<stop stop-color="#EDFFED"/>
<stop offset="1" stop-color="#185B00"/>
</linearGradient>
<linearGradient id="paint1_linear_124_2" x1="140.565" y1="159.81" x2="140.565" y2="274.268" gradientUnits="userSpaceOnUse">
<stop stop-color="#EDFFED"/>
<stop offset="1" stop-color="#185B00"/>
</linearGradient>
<linearGradient id="paint2_linear_124_2" x1="64.2966" y1="130.037" x2="64.2966" y2="214.676" gradientUnits="userSpaceOnUse">
<stop stop-color="#EDFFED"/>
<stop offset="1" stop-color="#185B00"/>
</linearGradient>
<linearGradient id="paint3_linear_124_2" x1="118.357" y1="60.3814" x2="118.357" y2="148.819" gradientUnits="userSpaceOnUse">
<stop stop-color="#EDFFED"/>
<stop offset="1" stop-color="#185B00"/>
</linearGradient>
<linearGradient id="paint4_linear_124_2" x1="256.398" y1="130.042" x2="256.398" y2="214.66" gradientUnits="userSpaceOnUse">
<stop stop-color="#EDFFED"/>
<stop offset="1" stop-color="#185B00"/>
</linearGradient>
<linearGradient id="paint5_linear_124_2" x1="202.34" y1="60.3841" x2="202.34" y2="148.814" gradientUnits="userSpaceOnUse">
<stop stop-color="#EDFFED"/>
<stop offset="1" stop-color="#185B00"/>
</linearGradient>
<linearGradient id="paint6_linear_124_2" x1="160.343" y1="0.0827637" x2="160.343" y2="337.083" gradientUnits="userSpaceOnUse">
<stop stop-color="#EDFFED"/>
<stop offset="1" stop-color="#185B00"/>
</linearGradient>
</defs>
</svg>
